<svg xmlns="http://www.w3.org/2000/svg" viewBox="0 0 640 360" width="640" height="360" role="img" aria-label="Mission control: an instruction becomes a plan, an agent is dispatched, objectives settle on evidence, and the mission asks when it is unsure"><!-- BattleLab v0.20 illustration: missions. Generated by scripts/whatsnew-illustrations (#971); standalone, so colours are the dark tokens.css values. --><style>text{font-family:"JetBrains Mono","DejaVu Sans Mono","Liberation Mono",ui-monospace,monospace}@keyframes a18{0%,18%{opacity:0}21%,100%{opacity:1}}.a18{animation:a18 10s 1 both}@keyframes a32{0%,32%{opacity:0}35%,100%{opacity:1}}.a32{animation:a32 10s 1 both}@keyframes a38{0%,38%{opacity:0}41%,100%{opacity:1}}.a38{animation:a38 10s 1 both}@keyframes a44{0%,44%{opacity:0}47%,100%{opacity:1}}.a44{animation:a44 10s 1 both}@keyframes a47{0%,47%{opacity:0}50%,100%{opacity:1}}.a47{animation:a47 10s 1 both}@keyframes a50{0%,50%{opacity:0}53%,100%{opacity:1}}.a50{animation:a50 10s 1 both}@keyframes a56{0%,56%{opacity:0}59%,100%{opacity:1}}.a56{animation:a56 10s 1 both}@keyframes a59{0%,59%{opacity:0}62%,100%{opacity:1}}.a59{animation:a59 10s 1 both}@keyframes a67{0%,67%{opacity:0}70%,100%{opacity:1}}.a67{animation:a67 10s 1 both}@keyframes a72{0%,72%{opacity:0}75%,100%{opacity:1}}.a72{animation:a72 10s 1 both}@keyframes a82{0%,82%{opacity:0}85%,100%{opacity:1}}.a82{animation:a82 10s 1 both}@keyframes a86{0%,86%{opacity:0}89%,100%{opacity:1}}.a86{animation:a86 10s 1 both}@keyframes cur{50%{opacity:0}}.cur{animation:cur 1s steps(1,end) 10}@keyframes d86{0%,86%{opacity:1}89%,100%{opacity:0}}.d86{opacity:0;animation:d86 10s 1 both}@keyframes flow{to{stroke-dashoffset:-8}}.flow{stroke-dasharray:4 4;animation:flow .8s linear 12}@keyframes led{0%,100%{opacity:1}50%{opacity:.35}}.led{animation:led 1.6s ease-in-out 6}@keyframes p15{0%,15%{opacity:0}16%{opacity:1}21%,100%{opacity:0}}.p15{opacity:0;animation:p15 10s 1 both}@keyframes p28{0%,28%{opacity:0}29%{opacity:1}34%,100%{opacity:0}}.p28{opacity:0;animation:p28 10s 1 both}@keyframes ty2_8_168{0%,2%{transform:translateX(0)}8%,100%{transform:translateX(168px)}}.ty2_8_168{transform:translateX(168px);animation:ty2_8_168 10s steps(18,end) 1 both}@keyframes ty8_14_168{0%,8%{transform:translateX(0)}14%,100%{transform:translateX(168px)}}.ty8_14_168{transform:translateX(168px);animation:ty8_14_168 10s steps(18,end) 1 both}@media (prefers-reduced-motion:reduce){*{animation:none!important}}</style><rect x="0" y="0" width="640" height="360" fill="#131418"/><g stroke="#ffb000" stroke-width="2" fill="none"><path d="M8 20V8h12"/><path d="M620 8h12v12"/><path d="M8 340v12h12"/><path d="M632 340v12h-12"/></g><text x="28" y="40" fill="#ffb000" font-size="10.5" font-weight="700" letter-spacing="2">MISSION CONTROL</text><circle cx="551" cy="36.5" r="3.5" fill="#3fbf6f" class="led"/><text x="612" y="40" fill="#a7abb3" font-size="10" text-anchor="end" letter-spacing="1">RUNNING</text><text x="28" y="66" fill="#6f747d" font-size="9" letter-spacing="1.5">01 INSTRUCTION</text><rect x="28.5" y="74.5" width="176" height="100" fill="#0d0e10" stroke="#25282e"/><text x="232" y="66" fill="#6f747d" font-size="9" letter-spacing="1.5">02 PLAN</text><rect x="232.5" y="74.5" width="176" height="100" fill="#0d0e10" stroke="#25282e"/><text x="436" y="66" fill="#6f747d" font-size="9" letter-spacing="1.5">03 DISPATCH</text><rect x="436.5" y="74.5" width="176" height="100" fill="#0d0e10" stroke="#25282e"/><clipPath id="mi1"><rect x="36" y="88" width="164" height="17"/></clipPath><g clip-path="url(#mi1)"><g class="fo"><text x="40" y="100" fill="#e8e9ec" font-size="10.5">fix the flaky upload</text><rect x="36" y="88" width="164" height="17" fill="#0d0e10" class="ty2_8_168"/></g></g><clipPath id="mi2"><rect x="36" y="106" width="164" height="17"/></clipPath><g clip-path="url(#mi2)"><g class="fo"><text x="40" y="118" fill="#e8e9ec" font-size="10.5">retry, then open a PR</text><rect x="36" y="106" width="164" height="17" fill="#0d0e10" class="ty8_14_168"/></g></g><rect x="182" y="108" width="6" height="12" fill="#ffb000" class="cur"/><rect x="40.5" y="144.5" width="110" height="20" fill="none" stroke="#ffb000" stroke-opacity=".55"/><text x="95.0" y="157.24" fill="#ffb000" font-size="9" text-anchor="middle" letter-spacing="1">NEW MISSION →</text><rect x="40" y="144" width="110" height="20" fill="#ffffff" class="p15" fill-opacity=".38"/><g class="a18"><path d="M206 124 H228" stroke="#ffb000" stroke-width="1.5" class="flow"/><path d="M224 120 l5 4 -5 4" fill="none" stroke="#ffb000" stroke-width="1.5"/></g><g class="a18"><text x="244" y="96" fill="#6f747d" font-size="9" letter-spacing="1">PROJECT</text><text x="314" y="96" fill="#e8e9ec" font-size="10.5">upload-svc</text><text x="244" y="116" fill="#6f747d" font-size="9" letter-spacing="1">AGENT</text><rect x="314" y="107" width="18" height="12" fill="#ffb000"/><text x="323" y="116" fill="#120c00" font-size="7.5" text-anchor="middle" font-weight="700">CC</text><text x="338" y="116" fill="#e8e9ec" font-size="10.5">claude</text><text x="244" y="136" fill="#6f747d" font-size="9" letter-spacing="1">CHECKS</text><text x="314" y="136" fill="#e8e9ec" font-size="10.5">4 objectives</text><rect x="244" y="146" width="64" height="20" fill="#ffb000"/><text x="276.0" y="159.24" fill="#120c00" font-size="9" text-anchor="middle" font-weight="700" letter-spacing="1">BEGIN</text><text x="318" y="160" fill="#6f747d" font-size="9" letter-spacing="1">RE-PLAN</text></g><rect x="244" y="146" width="64" height="20" fill="#ffffff" class="p28" fill-opacity=".38"/><g class="a32"><path d="M410 124 H432" stroke="#ffb000" stroke-width="1.5" class="flow"/><path d="M428 120 l5 4 -5 4" fill="none" stroke="#ffb000" stroke-width="1.5"/></g><g class="a32"><rect x="448" y="84" width="18" height="12" fill="#ffb000"/><text x="457" y="93" fill="#120c00" font-size="7.5" text-anchor="middle" font-weight="700">CC</text><text x="472" y="94" fill="#a7abb3" font-size="10">upload-svc</text><line x1="448" y1="102.5" x2="600" y2="102.5" stroke="#25282e"/></g><g class="a32"><circle cx="598" cy="90" r="3.5" fill="#3fbf6f" class="led"/></g><g class="a38"><text x="448" y="120" fill="#a7abb3" font-size="10">$ pytest -q</text></g><g class="a44"><text x="448" y="136" fill="#3fbf6f" font-size="10" xml:space="preserve" style="white-space:pre">  42 passed</text></g><g class="a50"><text x="448" y="152" fill="#a7abb3" font-size="10">$ gh pr create</text></g><g class="a56"><text x="448" y="168" fill="#e8e9ec" font-size="10" xml:space="preserve" style="white-space:pre">  PR #418 opened</text></g><text x="28" y="198" fill="#6f747d" font-size="9" letter-spacing="1.5">04 OBJECTIVES · SETTLED ON EVIDENCE</text><rect x="28.5" y="206.5" width="380" height="100" fill="#0d0e10" stroke="#25282e"/><rect x="40.5" y="217.5" width="11" height="11" fill="none" stroke="#6f747d"/><g class="a47"><rect x="40" y="217" width="12" height="12" fill="#3fbf6f"/><path d="M42.5 223 l2.6 2.6 4.6 -5.2" fill="none" stroke="#120c00" stroke-width="1.8"/></g><text x="60" y="226" fill="#e8e9ec" font-size="10.5">tests pass</text><g class="a47"><text x="396" y="226" fill="#6f747d" font-size="9.5" text-anchor="end">CI · 42 passed</text></g><rect x="40.5" y="239.5" width="11" height="11" fill="none" stroke="#6f747d"/><g class="a59"><rect x="40" y="239" width="12" height="12" fill="#3fbf6f"/><path d="M42.5 245 l2.6 2.6 4.6 -5.2" fill="none" stroke="#120c00" stroke-width="1.8"/></g><text x="60" y="248" fill="#e8e9ec" font-size="10.5">PR opened</text><g class="a59"><text x="396" y="248" fill="#6f747d" font-size="9.5" text-anchor="end">#418</text></g><rect x="40.5" y="261.5" width="11" height="11" fill="none" stroke="#6f747d"/><g class="a67"><rect x="40" y="261" width="12" height="12" fill="#3fbf6f"/><path d="M42.5 267 l2.6 2.6 4.6 -5.2" fill="none" stroke="#120c00" stroke-width="1.8"/></g><text x="60" y="270" fill="#e8e9ec" font-size="10.5">checks green</text><g class="a67"><text x="396" y="270" fill="#6f747d" font-size="9.5" text-anchor="end">3 / 3</text></g><rect x="40.5" y="283.5" width="11" height="11" fill="none" stroke="#6f747d"/><text x="60" y="292" fill="#e8e9ec" font-size="10.5">deployed and live</text><g class="d86"><text x="396" y="292" fill="#6f747d" font-size="9.5" text-anchor="end" letter-spacing="1">WAITING</text></g><g class="a86"><text x="396" y="292" fill="#a7abb3" font-size="9.5" text-anchor="end" letter-spacing="1">DEPLOYING</text></g><text x="436" y="198" fill="#6f747d" font-size="9" letter-spacing="1.5">05 WHEN UNSURE, IT ASKS</text><rect x="436.5" y="206.5" width="176" height="100" fill="#0d0e10" stroke="#25282e"/><g class="a72"><rect x="436.5" y="206.5" width="176" height="100" fill="none" stroke="#ffb000" stroke-opacity=".55"/><text x="448" y="226" fill="#6f747d" font-size="8.5" letter-spacing="1">THE MISSION IS ASKING</text><text x="448" y="246" fill="#e8e9ec" font-size="10.5">Deploy to staging</text><text x="448" y="262" fill="#e8e9ec" font-size="10.5">or production?</text><rect x="448.5" y="276.5" width="72" height="20" fill="none" stroke="#ffb000" stroke-opacity=".55"/><text x="484.0" y="289.24" fill="#ffb000" font-size="9" text-anchor="middle" letter-spacing="1">STAGING</text><rect x="528.5" y="276.5" width="72" height="20" fill="none" stroke="#25282e"/><text x="564.0" y="289.24" fill="#a7abb3" font-size="9" text-anchor="middle" letter-spacing="1">PROD</text></g><g class="a82"><rect x="448" y="276" width="72" height="20" fill="#ffb000"/><text x="484.0" y="289.24" fill="#120c00" font-size="9" text-anchor="middle" font-weight="700" letter-spacing="1">STAGING</text></g><text x="320" y="338" fill="#6f747d" font-size="11" text-anchor="middle">MISSION CONTROL // say the outcome, it follows through</text></svg>
